<?xml version="1.0" encoding="UTF-8" standalone="no"?>
<!-- Created with Inkscape (http://www.inkscape.org/) -->

<svg
   xmlns:dc="http://purl.org/dc/elements/1.1/"
   xmlns:cc="http://creativecommons.org/ns#"
   xmlns:rdf="http://www.w3.org/1999/02/22-rdf-syntax-ns#"
   xmlns:svg="http://www.w3.org/2000/svg"
   xmlns="http://www.w3.org/2000/svg"
   xmlns:sodipodi="http://sodipodi.sourceforge.net/DTD/sodipodi-0.dtd"
   xmlns:inkscape="http://www.inkscape.org/namespaces/inkscape"
   width="507"
   height="735"
   id="svg4768"
   version="1.1"
   inkscape:version="0.48.2 r9819"
   sodipodi:docname="Canchita_de_fútbol.svg">
  <defs
     id="defs4770" />
  <sodipodi:namedview
     id="base"
     pagecolor="#ffffff"
     bordercolor="#666666"
     borderopacity="1.0"
     inkscape:pageopacity="0.0"
     inkscape:pageshadow="2"
     inkscape:zoom="0.98994949"
     inkscape:cx="470.74638"
     inkscape:cy="402.21685"
     inkscape:document-units="px"
     inkscape:current-layer="layer1"
     showgrid="false"
     fit-margin-top="0"
     fit-margin-left="0"
     fit-margin-right="0"
     fit-margin-bottom="0"
     inkscape:window-width="1400"
     inkscape:window-height="978"
     inkscape:window-x="-4"
     inkscape:window-y="-4"
     inkscape:window-maximized="1" />
  <metadata
     id="metadata4773">
    <rdf:RDF>
      <cc:Work
         rdf:about="">
        <dc:format>image/svg+xml</dc:format>
        <dc:type
           rdf:resource="http://purl.org/dc/dcmitype/StillImage" />
        <dc:title />
      </cc:Work>
    </rdf:RDF>
  </metadata>
  <g
     inkscape:label="Capa 1"
     inkscape:groupmode="layer"
     id="layer1"
     transform="translate(-6.6754723,-3.8246315)">
    <path
       style="fill:#688124;fill-opacity:0.98780488;fill-rule:nonzero;stroke:#ffffff;stroke-width:0.22334227;stroke-miterlimit:4;stroke-opacity:1;stroke-dasharray:none"
       d="m 42.98384,713.84773 c -0.63221,-1.67492 -1.96344,-3.00615 -3.63836,-3.63836 -1.88343,-0.71091 -2.64135,-1.56135 -2.64135,-2.96376 l 0,-1.96676 43.97859,0 43.97859,0 0,5.60512 0,5.60511 -40.34023,0 -40.34024,0 -0.997,-2.64135 0,0 z"
       id="path7243-4"
       inkscape:connector-curvature="0" />
    <path
       style="fill:#688124;fill-opacity:0.98780488;fill-rule:nonzero;stroke:#ffffff;stroke-width:0.22334227;stroke-miterlimit:4;stroke-opacity:1;stroke-dasharray:none"
       d="m 128.97293,710.88397 0,-5.60512 34.06185,0 34.06186,0 0,5.60512 0,5.60511 -34.06186,0 -34.06185,0 0,-5.60511 z"
       id="path7241-5"
       inkscape:connector-curvature="0" />
    <path
       style="fill:#688124;fill-opacity:0.98780488;fill-rule:nonzero;stroke:#ffffff;stroke-width:0.05583557;stroke-miterlimit:4;stroke-opacity:1;stroke-dasharray:none"
       d="m 236.78062,724.31848 0,-4.31162 23.92953,0 23.92953,0 0,4.31162 0,4.31163 -23.92953,0 -23.92953,0 0,-4.31163 z"
       id="path7247-4"
       inkscape:connector-curvature="0" />
    <path
       style="fill:#688124;fill-opacity:0.98780488;fill-rule:nonzero;stroke:#ffffff;stroke-width:0.22334227;stroke-miterlimit:4;stroke-opacity:1;stroke-dasharray:none"
       d="m 201.40826,710.88397 0,-5.60512 57.34464,0 57.34463,0 0,5.60512 0,5.60511 -57.34463,0 -57.34464,0 0,-5.60511 z"
       id="path7239-2"
       inkscape:connector-curvature="0" />
    <path
       style="fill:#688124;fill-opacity:0.98780488;fill-rule:nonzero;stroke:#ffffff;stroke-width:0.22334227;stroke-miterlimit:4;stroke-opacity:1;stroke-dasharray:none"
       d="m 320.40916,710.88397 0,-5.60512 34.49301,0 34.49302,0 0,5.60512 0,5.60511 -34.49302,0 -34.49301,0 0,-5.60511 z"
       id="path7237-7"
       inkscape:connector-curvature="0" />
    <path
       style="fill:#688124;fill-opacity:0.98780488;fill-rule:nonzero;stroke:#ffffff;stroke-width:0.22334227;stroke-miterlimit:4;stroke-opacity:1;stroke-dasharray:none"
       d="m 393.70681,710.88397 0,-5.60512 44.84095,0 44.8409,0 0,1.96676 c 0,1.37093 -0.7454,2.24811 -2.4604,2.89546 -1.4216,0.53657 -2.9668,2.07279 -3.6598,3.63835 l -1.1994,2.70966 -41.1811,0 -41.18115,0 0,-5.60511 z"
       id="path7235-4"
       inkscape:connector-curvature="0" />
    <path
       style="fill:#688124;fill-opacity:0.98780488;fill-rule:nonzero;stroke:#ffffff;stroke-width:0.22334227;stroke-miterlimit:4;stroke-opacity:1;stroke-dasharray:none"
       d="m 7.38507,721.66304 0,-16.38419 12.93488,0 12.93488,0 0,7.32977 0,7.32976 100.89206,0 100.89206,0 0,5.17396 0,5.17395 25.4386,0 25.4386,0 0,-5.17395 0,-5.17396 100.4609,0 100.46091,0 0,-7.32976 0,-7.32977 12.9349,0 12.9348,0 0,16.38419 0,16.38418 -252.66127,0 -252.66132,0 0,-16.38418 z"
       id="path7245-5"
       inkscape:connector-curvature="0" />
    <path
       style="fill:#688124;fill-opacity:0.98780488;fill-rule:nonzero;stroke:#ffffff;stroke-width:0.22334227;stroke-miterlimit:4;stroke-opacity:1;stroke-dasharray:none"
       d="m 486.83796,633.70586 0,-22.42046 12.9349,0 12.9348,0 0,22.42046 0,22.42045 -12.9348,0 -12.9349,0 0,-22.42045 z"
       id="path7231-5"
       inkscape:connector-curvature="0" />
    <path
       style="fill:#688124;fill-opacity:0.98780488;fill-rule:nonzero;stroke:#ffffff;stroke-width:0.22334227;stroke-miterlimit:4;stroke-opacity:1;stroke-dasharray:none"
       d="m 393.70681,633.70586 0,-22.42046 44.84095,0 44.8409,0 0,22.42046 0,22.42045 -44.8409,0 -44.84095,0 0,-22.42045 z"
       id="path7233-5"
       inkscape:connector-curvature="0" />
    <path
       style="fill:#688124;fill-opacity:0.98780488;fill-rule:nonzero;stroke:#ffffff;stroke-width:0.22334227;stroke-miterlimit:4;stroke-opacity:1;stroke-dasharray:none"
       d="m 7.38507,633.70586 0,-22.42046 12.93488,0 12.93488,0 0,22.42046 0,22.42045 -12.93488,0 -12.93488,0 0,-22.42045 z"
       id="path7225-9"
       inkscape:connector-curvature="0" />
    <path
       style="fill:#688124;fill-opacity:0.98780488;fill-rule:nonzero;stroke:#ffffff;stroke-width:0.22334227;stroke-miterlimit:4;stroke-opacity:1;stroke-dasharray:none"
       d="m 36.70413,633.70586 0,-22.42046 43.97859,0 43.97859,0 0,22.42046 0,22.42045 -43.97859,0 -43.97859,0 0,-22.42045 z"
       id="path7223-8"
       inkscape:connector-curvature="0" />
    <path
       style="fill:#688124;fill-opacity:0.98780488;fill-rule:nonzero;stroke:#ffffff;stroke-width:0.22334227;stroke-miterlimit:4;stroke-opacity:1;stroke-dasharray:none"
       d="m 128.97293,634.99935 0,-21.12697 130.21113,0 130.21113,0 0,21.12697 0,21.12696 -130.21113,0 -130.21113,0 0,-21.12696 z m 134.44426,13.24982 c 1.13693,-2.03496 1.1152,-2.50735 -0.20826,-4.5272 -2.58499,-3.94519 -8.3365,-2.22894 -8.3365,2.4876 0,4.84748 6.15513,6.31668 8.54476,2.0396 z"
       id="path7221-5"
       inkscape:connector-curvature="0" />
    <path
       style="fill:#688124;fill-opacity:0.98780488;fill-rule:nonzero;stroke:#ffffff;stroke-width:0.22334227;stroke-miterlimit:4;stroke-opacity:1;stroke-dasharray:none"
       d="m 486.83796,536.69426 0,-23.71396 12.9349,0 12.9348,0 0,23.71396 0,23.71395 -12.9348,0 -12.9349,0 0,-23.71395 z"
       id="path7229-5"
       inkscape:connector-curvature="0" />
    <path
       style="fill:#688124;fill-opacity:0.98780488;fill-rule:nonzero;stroke:#ffffff;stroke-width:0.22334227;stroke-miterlimit:4;stroke-opacity:1;stroke-dasharray:none"
       d="m 7.38507,536.69426 0,-23.71396 12.93488,0 12.93488,0 0,23.71396 0,23.71395 -12.93488,0 -12.93488,0 0,-23.71395 z"
       id="path7227-1"
       inkscape:connector-curvature="0" />
    <path
       style="fill:#688124;fill-opacity:0.98780488;fill-rule:nonzero;stroke:#ffffff;stroke-width:0.22334227;stroke-miterlimit:4;stroke-opacity:1;stroke-dasharray:none"
       d="m 36.70413,536.69426 0,-23.71396 223.34226,0 223.34227,0 0,23.71396 0,23.71395 -223.34227,0 -223.34226,0 0,-23.71395 z"
       id="path7219-6"
       inkscape:connector-curvature="0" />
    <path
       style="fill:#688124;fill-opacity:0.98780488;fill-rule:nonzero;stroke:#ffffff;stroke-width:0.22334227;stroke-miterlimit:4;stroke-opacity:1;stroke-dasharray:none"
       d="m 7.38507,442.26962 0,-23.28278 12.93488,0 12.93488,0 0,23.28278 0,23.28279 -12.93488,0 -12.93488,0 0,-23.28279 z"
       id="path7213-9"
       inkscape:connector-curvature="0" />
    <path
       style="fill:#688124;fill-opacity:0.98780488;fill-rule:nonzero;stroke:#ffffff;stroke-width:0.22334227;stroke-miterlimit:4;stroke-opacity:1;stroke-dasharray:none"
       d="m 486.83796,442.26962 0,-23.28278 12.9349,0 12.9348,0 0,23.28278 0,23.28279 -12.9348,0 -12.9349,0 0,-23.28279 z"
       id="path7215-9"
       inkscape:connector-curvature="0" />
    <path
       style="fill:#688124;fill-opacity:0.98780488;fill-rule:nonzero;stroke:#ffffff;stroke-width:0.22334227;stroke-miterlimit:4;stroke-opacity:1;stroke-dasharray:none"
       d="m 249.69848,427.01476 c -3.72774,-0.62331 -12.34605,-3.71292 -16.38418,-5.87364 l -3.88046,-2.07635 29.9658,-0.039 c 16.48119,-0.0214 29.96581,0.17939 29.96581,0.44627 0,0.93843 -11.28368,5.58834 -16.60624,6.8433 -4.94829,1.16671 -17.91409,1.55994 -23.06073,0.69938 z"
       id="path7217-7"
       inkscape:connector-curvature="0" />
    <path
       style="fill:#688124;fill-opacity:0.98780488;fill-rule:nonzero;stroke:#ffffff;stroke-width:0.22334227;stroke-miterlimit:4;stroke-opacity:1;stroke-dasharray:none"
       d="m 36.70413,442.26962 0,-23.28278 92.65017,0 92.65016,0 5.61944,3.52337 c 19.91908,12.48923 46.41037,12.11966 65.7269,-0.91692 l 3.86203,-2.60645 93.08791,0 93.08792,0 0,23.28278 0,23.28279 -223.34227,0 -223.34226,0 0,-23.28279 z"
       id="path7211-2"
       inkscape:connector-curvature="0" />
    <path
       style="fill:#688124;fill-opacity:0.98780488;fill-rule:nonzero;stroke:#ffffff;stroke-width:0.22334227;stroke-miterlimit:4;stroke-opacity:1;stroke-dasharray:none"
       d="m 486.83796,346.98267 0,-23.71394 12.9349,0 12.9348,0 0,23.71394 0,23.71395 -12.9348,0 -12.9349,0 0,-23.71395 z"
       id="path7207-8"
       inkscape:connector-curvature="0" />
    <path
       style="fill:#688124;fill-opacity:0.98780488;fill-rule:nonzero;stroke:#ffffff;stroke-width:0.22334227;stroke-miterlimit:4;stroke-opacity:1;stroke-dasharray:none"
       d="m 320.08338,363.46754 c -1.30425,-12.73025 -7.2841,-25.11735 -17.22039,-35.6716 l -4.26214,-4.52721 92.3939,0 92.39391,0 0,22.85162 0,22.85162 -81.37068,0 -81.37065,0 -0.56395,-5.50443 z"
       id="path7205-9"
       inkscape:connector-curvature="0" />
    <path
       style="fill:#688124;fill-opacity:0.98780488;fill-rule:nonzero;stroke:#ffffff;stroke-width:0.22334227;stroke-miterlimit:4;stroke-opacity:1;stroke-dasharray:none"
       d="m 7.38507,346.98267 0,-23.71394 12.93488,0 12.93488,0 0,23.71394 0,23.71395 -12.93488,0 -12.93488,0 0,-23.71395 z"
       id="path7209-3"
       inkscape:connector-curvature="0" />
    <path
       style="fill:#688124;fill-opacity:0.98780488;fill-rule:nonzero;stroke:#ffffff;stroke-width:0.22334227;stroke-miterlimit:4;stroke-opacity:1;stroke-dasharray:none"
       d="m 36.70413,346.12035 0,-22.85162 92.39199,0 92.392,0 -4.53556,4.52721 c -9.96623,9.94788 -15.62134,21.80566 -17.68386,37.07998 l -0.55309,4.09605 -81.00574,0 -81.00574,0 0,-22.85162 z"
       id="path7201-1"
       inkscape:connector-curvature="0" />
    <path
       style="fill:#688124;fill-opacity:0.98780488;fill-rule:nonzero;stroke:#ffffff;stroke-width:0.22334227;stroke-miterlimit:4;stroke-opacity:1;stroke-dasharray:none"
       d="m 203.13291,366.09177 c 0,-4.9966 3.30171,-16.04257 6.64593,-22.23417 3.71382,-6.87587 9.10506,-13.33168 14.70237,-17.60555 l 3.90715,-2.98332 31.8929,0 31.8929,0 7.07914,7.11418 c 10.0972,10.14719 15.63572,21.25941 17.1919,34.49301 l 0.48167,4.09605 -26.00095,0 c -22.79075,0 -26.19212,-0.17301 -27.54934,-1.40128 -0.85162,-0.7707 -2.59812,-1.40128 -3.88112,-1.40128 -1.28299,0 -2.7938,0.63058 -3.35735,1.40128 -0.90659,1.23983 -4.01914,1.40128 -27.01492,1.40128 l -25.99028,0 0,-2.8802 z"
       id="path7203-1"
       inkscape:connector-curvature="0" />
    <path
       style="fill:#688124;fill-opacity:0.98780488;fill-rule:nonzero;stroke:#ffffff;stroke-width:0.22334227;stroke-miterlimit:4;stroke-opacity:1;stroke-dasharray:none"
       d="m 486.83796,250.8334 0,-22.42046 13.366,0 13.3661,0 0,22.42046 0,22.42046 -13.3661,0 -13.366,0 0,-22.42046 z"
       id="path7197-1"
       inkscape:connector-curvature="0" />
    <path
       style="fill:#688124;fill-opacity:0.98780488;fill-rule:nonzero;stroke:#ffffff;stroke-width:0.22334227;stroke-miterlimit:4;stroke-opacity:1;stroke-dasharray:none"
       d="m 7.38507,250.8334 0,-22.42046 12.93488,0 12.93488,0 0,22.42046 0,22.42046 -12.93488,0 -12.93488,0 0,-22.42046 z"
       id="path7199-6"
       inkscape:connector-curvature="0" />
    <path
       style="fill:#688124;fill-opacity:0.98780488;fill-rule:nonzero;stroke:#ffffff;stroke-width:0.22334227;stroke-miterlimit:4;stroke-opacity:1;stroke-dasharray:none"
       d="m 36.70413,250.8334 0,-22.42046 223.34226,0 223.34227,0 0,22.42046 0,22.42046 -223.34227,0 -223.34226,0 0,-22.42046 z"
       id="path7195-8"
       inkscape:connector-curvature="0" />
    <path
       style="fill:#688124;fill-opacity:0.98780488;fill-rule:nonzero;stroke:#ffffff;stroke-width:0.22334227;stroke-miterlimit:4;stroke-opacity:1;stroke-dasharray:none"
       d="m 245.81802,150.42741 c -11.8257,-2.76595 -18.17556,-6.1012 -24.04528,-12.62974 -2.18916,-2.43488 -3.9803,-4.77312 -3.9803,-5.19611 0,-0.43996 17.89702,-0.76906 41.82278,-0.76906 23.00253,0 41.82278,0.31892 41.82278,0.70871 0,1.15364 -4.53835,6.73568 -7.32976,9.0154 -3.57166,2.91694 -8.41181,5.26228 -15.52186,7.52128 -7.74611,2.46109 -24.98115,3.17089 -32.76836,1.34952 z"
       id="path7193-9"
       inkscape:connector-curvature="0" />
    <path
       style="fill:#688124;fill-opacity:0.98780488;fill-rule:nonzero;stroke:#ffffff;stroke-width:0.22334227;stroke-miterlimit:4;stroke-opacity:1;stroke-dasharray:none"
       d="m 7.38507,155.54645 0,-23.71395 12.93488,0 12.93488,0 0,23.71395 0,23.71394 -12.93488,0 -12.93488,0 0,-23.71394 z"
       id="path7191-8"
       inkscape:connector-curvature="0" />
    <path
       style="fill:#688124;fill-opacity:0.98780488;fill-rule:nonzero;stroke:#ffffff;stroke-width:0.22334227;stroke-miterlimit:4;stroke-opacity:1;stroke-dasharray:none"
       d="m 486.83796,155.54645 0,-23.71395 13.366,0 13.3661,0 0,23.71395 0,23.71394 -13.3661,0 -13.366,0 0,-23.71394 z"
       id="path7187-6"
       inkscape:connector-curvature="0" />
    <path
       style="fill:#688124;fill-opacity:0.98780488;fill-rule:nonzero;stroke:#ffffff;stroke-width:0.22334227;stroke-miterlimit:4;stroke-opacity:1;stroke-dasharray:none"
       d="m 36.70413,155.54645 0,-23.71395 88.30398,0 88.30399,0 0.90414,2.59361 c 1.58988,4.56073 9.39992,11.90064 16.03759,15.0722 10.12077,4.83583 15.75506,5.98218 29.36139,5.97383 9.84335,-0.006 13.31442,-0.35979 18.79799,-1.91578 12.9206,-3.66627 22.32012,-10.1321 26.42431,-18.17697 l 1.80949,-3.54689 88.37081,0 88.37084,0 0,23.71395 0,23.71394 -223.34227,0 -223.34226,0 0,-23.71394 z"
       id="path7189-1"
       inkscape:connector-curvature="0" />
    <path
       style="fill:#688124;fill-opacity:0.98780488;fill-rule:nonzero;stroke:#ffffff;stroke-width:0.22334227;stroke-miterlimit:4;stroke-opacity:1;stroke-dasharray:none"
       d="m 486.83796,59.828352 0,-23.713949 13.366,0 13.3661,0 0,23.713949 0,23.71395 -13.3661,0 -13.366,0 0,-23.71395 z"
       id="path7185-1"
       inkscape:connector-curvature="0" />
    <path
       style="fill:#688124;fill-opacity:0.98780488;fill-rule:nonzero;stroke:#ffffff;stroke-width:0.22334227;stroke-miterlimit:4;stroke-opacity:1;stroke-dasharray:none"
       d="m 393.70681,59.828352 0,-23.713949 44.84095,0 44.8409,0 0,23.713949 0,23.71395 -44.8409,0 -44.84095,0 0,-23.71395 z"
       id="path7183-3"
       inkscape:connector-curvature="0" />
    <path
       style="fill:#688124;fill-opacity:0.98780488;fill-rule:nonzero;stroke:#ffffff;stroke-width:0.31585366;stroke-miterlimit:4;stroke-opacity:1;stroke-dasharray:none"
       d="m 201.85857,45.892092 0,-9.14634 57.92683,0 57.92683,0 0,9.14634 0,9.14634 -57.92683,0 -57.92683,0 0,-9.14634 z"
       id="path7255-1"
       inkscape:connector-curvature="0" />
    <path
       style="fill:#688124;fill-opacity:0.98780488;fill-rule:nonzero;stroke:#ffffff;stroke-width:0.259;stroke-miterlimit:4;stroke-opacity:1;stroke-dasharray:none"
       d="m 129.55244,59.798012 0,-23.71395 34.49301,0 34.49302,0 0,11.64139 0,11.64139 61.2251,0 61.2251,0 0,-11.64139 0,-11.64139 34.49301,0 34.49301,0 0,23.71395 0,23.71394 -130.21112,0 -130.21113,0 0,-23.71394 z"
       id="path7159-1"
       inkscape:connector-curvature="0" />
    <path
       style="fill:#688124;fill-opacity:0.98780488;fill-rule:nonzero;stroke:#ffffff;stroke-width:0.22334227;stroke-miterlimit:4;stroke-opacity:1;stroke-dasharray:none"
       d="m 7.38507,59.828352 0,-23.713949 12.93488,0 12.93488,0 0,23.713949 0,23.71395 -12.93488,0 -12.93488,0 0,-23.71395 z"
       id="path7181-9"
       inkscape:connector-curvature="0" />
    <path
       style="fill:#688124;fill-opacity:0.98780488;fill-rule:nonzero;stroke:#ffffff;stroke-width:0.22334227;stroke-miterlimit:4;stroke-opacity:1;stroke-dasharray:none"
       d="m 36.70413,59.828352 0,-23.713949 44.40975,0 44.40975,0 0,23.713949 0,23.71395 -44.40975,0 -44.40975,0 0,-23.71395 z"
       id="path7179-6"
       inkscape:connector-curvature="0" />
    <rect
       style="fill:#6e932d;fill-opacity:0.93333333"
       id="rect3466-7"
       width="507"
       height="735"
       x="6.6754723"
       y="3.8246315" />
    <rect
       style="fill:#ffffff;fill-opacity:1"
       id="rect3230-2"
       width="453.00018"
       height="2.9549901"
       x="33.676937"
       y="21.824327" />
    <rect
       style="fill:#ff0000;fill-opacity:1"
       id="rect3232-1"
       width="0.04296875"
       height="0.0078125"
       x="33.91766"
       y="21.969164" />
    <rect
       style="fill:#ffffff;fill-opacity:1"
       id="rect3230-3-5"
       width="108.10175"
       height="2.9549901"
       x="23.722948"
       y="-129.18671"
       transform="matrix(0,1,-1,0,0,0)" />
    <rect
       style="fill:#ffffff;fill-opacity:1"
       id="rect3230-8-5"
       width="264.79706"
       height="2.9549901"
       x="128.87646"
       y="128.86687" />
    <rect
       style="fill:#ffffff;fill-opacity:1"
       id="rect3230-3-4-8"
       width="107.90644"
       height="2.9549901"
       x="21.969103"
       y="-393.66727"
       transform="matrix(0,1,-1,0,0,0)" />
    <path
       sodipodi:type="arc"
       style="fill:#ffffff;fill-opacity:1"
       id="path3226-7-9"
       sodipodi:cx="253.36719"
       sodipodi:cy="367.36719"
       sodipodi:rx="3.4921875"
       sodipodi:ry="3.4609375"
       d="m 256.85937,367.36719 a 3.4921875,3.4609375 0 1 1 -6.98437,0 3.4921875,3.4609375 0 1 1 6.98437,0 z"
       transform="matrix(1.2316902,0,0,1.2676636,-51.82405,-369.7484)" />
    <rect
       style="fill:#ffffff;fill-opacity:1"
       id="rect3230-5-10"
       width="695.26581"
       height="2.9549901"
       x="24.559008"
       y="-36.629574"
       transform="matrix(0,1,-1,0,0,0)" />
    <rect
       style="fill:#ffffff;fill-opacity:1"
       id="rect3230-3-2-4"
       width="35.976753"
       height="2.9549901"
       x="22.844103"
       y="-201.63736"
       transform="matrix(0,1,-1,0,0,0)" />
    <rect
       style="fill:#ffffff;fill-opacity:1"
       id="rect3230-3-2-9-4"
       width="35.976753"
       height="2.9549901"
       x="22.851915"
       y="-320.67245"
       transform="matrix(0,1,-1,0,0,0)" />
    <rect
       style="fill:#ffffff;fill-opacity:1"
       id="rect3230-8-6-8"
       width="121.48456"
       height="2.9549901"
       x="198.67929"
       y="55.866684" />
    <rect
       style="fill:#ffffff;fill-opacity:1"
       id="rect3596-3"
       width="50.007812"
       height="1.0117188"
       x="235.66763"
       y="11.824632" />
    <rect
       style="fill:#ffffff;fill-opacity:1"
       id="rect3596-8-6"
       width="11.664062"
       height="1.0117188"
       x="-23.543383"
       y="235.66959"
       transform="matrix(0,-1,1,0,0,0)" />
    <rect
       style="fill:#ffffff;fill-opacity:1"
       id="rect3596-8-0-33"
       width="10.062499"
       height="1.0117188"
       x="-22.078539"
       y="284.66177"
       transform="matrix(0,-1,1,0,0,0)" />
    <path
       sodipodi:type="arc"
       style="fill:#ff0000;fill-opacity:0;stroke:#ffffff;stroke-width:3.11520553;stroke-miterlimit:4;stroke-opacity:1;stroke-dasharray:none"
       id="path3743-1"
       sodipodi:cx="254.125"
       sodipodi:cy="366.625"
       sodipodi:rx="59.625"
       sodipodi:ry="61.375"
       d="m 313.75,366.625 a 59.625,61.375 0 1 1 -119.25,0 59.625,61.375 0 1 1 119.25,0 z"
       transform="matrix(0.98789496,0,0,0.96176357,8.75169,18.218052)" />
    <path
       sodipodi:type="arc"
       style="fill:#ff0000;fill-opacity:0;stroke:#ffffff;stroke-width:2.55721402;stroke-miterlimit:4;stroke-opacity:1;stroke-dasharray:none"
       id="path4557-1"
       sodipodi:cx="246.45575"
       sodipodi:cy="152.35439"
       sodipodi:rx="29.629"
       sodipodi:ry="24.706959"
       d="m 275.74991,156.05835 a 29.629,24.706959 0 0 1 -58.526,0.32783"
       transform="matrix(1.5313138,0,0,1.1140241,-117.65406,-43.305067)"
       sodipodi:start="0.15048307"
       sodipodi:end="2.9776752"
       sodipodi:open="true" />
    <path
       sodipodi:type="arc"
       style="fill:#ff9900;fill-opacity:0;stroke:#ffffff;stroke-width:2.57833576;stroke-miterlimit:4;stroke-opacity:1;stroke-dasharray:none"
       id="path4671-2-7-2"
       sodipodi:cx="33.262318"
       sodipodi:cy="711.02325"
       sodipodi:rx="5.0829029"
       sodipodi:ry="4.3690495"
       d="m 32.970549,706.66141 a 5.0829029,4.3690495 0 0 1 5.331336,4.93114"
       transform="matrix(-1.1294976,0,0,-1.310886,521.57096,956.55025)"
       sodipodi:start="4.6549555"
       sodipodi:end="6.4138598"
       sodipodi:open="true" />
    <path
       sodipodi:type="arc"
       style="fill:#ff9900;fill-opacity:0;stroke:#ffffff;stroke-width:2.57833576;stroke-miterlimit:4;stroke-opacity:1;stroke-dasharray:none"
       id="path4671-2-7-0-3"
       sodipodi:cx="33.262318"
       sodipodi:cy="711.02325"
       sodipodi:rx="5.0829029"
       sodipodi:ry="4.3690495"
       d="m 32.970549,706.66141 a 5.0829029,4.3690495 0 0 1 5.331336,4.93114"
       transform="matrix(0,1.1294976,-1.310886,0,968.22556,-13.283628)"
       sodipodi:start="4.6549555"
       sodipodi:end="6.4138598"
       sodipodi:open="true" />
    <path
       style="fill:#ffffff;fill-opacity:0.82051284"
       d="m 257.32436,96.801611 c 0.67622,-5.5e-4 1.78276,-5.5e-4 2.45898,0 0.67622,5.4e-4 0.12295,9.9e-4 -1.22949,9.9e-4 -1.35244,0 -1.90571,-4.5e-4 -1.22949,-9.9e-4 l 0,0 z"
       id="path6353-9"
       inkscape:connector-curvature="0" />
    <path
       style="fill:#ffffff;fill-opacity:0.82051284"
       d="m 258.1874,96.801621 c 0.0316,-6.6e-4 0.0843,-6.6e-4 0.11719,-1e-5 0.0329,6.6e-4 0.007,0.001 -0.0574,0.001 -0.0644,1e-5 -0.0914,-5.3e-4 -0.0598,-0.001 z"
       id="path6355-3"
       inkscape:connector-curvature="0" />
    <path
       style="fill:#ffffff;fill-opacity:0.82051284"
       d="m 258.24819,96.801781 c 0.005,-9.3e-4 0.0127,-9.3e-4 0.0176,0 0.005,9.3e-4 8.8e-4,0.002 -0.009,0.002 -0.01,0 -0.0136,-7.6e-4 -0.009,-0.002 z"
       id="path6357-0"
       inkscape:connector-curvature="0" />
    <path
       style="fill:#ffffff;fill-opacity:0.82051284"
       d="m 258.27155,96.801981 c 0.003,-0.001 0.008,-0.001 0.0117,-1.5e-4 0.004,9.9e-4 0.002,0.002 -0.005,0.002 -0.006,8e-5 -0.01,-7.3e-4 -0.007,-0.002 z"
       id="path6361-6"
       inkscape:connector-curvature="0" />
    <path
       style="fill:#ffffff;fill-opacity:0.82051284"
       d="m 257.79533,96.806411 c 0.86654,-5.4e-4 2.28334,-5.4e-4 3.14844,0 0.86511,5.5e-4 0.15612,9.9e-4 -1.57552,9.9e-4 -1.73164,0 -2.43945,-4.4e-4 -1.57292,-9.9e-4 z"
       id="path6367-0"
       inkscape:connector-curvature="0" />
    <path
       style="fill:#ffffff;fill-opacity:0.88461537"
       d="m 304.57893,130.54129 c 10e-4,-0.001 0.005,-0.001 0.007,-3.1e-4 0.003,0.001 0.002,0.002 -0.002,0.002 -0.004,1.7e-4 -0.006,-7.5e-4 -0.005,-0.002 z"
       id="path6465-6"
       inkscape:connector-curvature="0" />
    <path
       style="fill:#ffffff;fill-opacity:0.88461537"
       d="m 291.06832,131.82197 c 0.88462,-5.4e-4 2.33217,-5.4e-4 3.21679,0 0.88462,5.4e-4 0.16084,9.9e-4 -1.6084,9.9e-4 -1.76923,0 -2.49301,-4.5e-4 -1.60839,-9.9e-4 z"
       id="path6495-2"
       inkscape:connector-curvature="0" />
    <path
       style="fill:#ffffff;fill-opacity:0.88461537"
       d="m 299.91187,131.79756 0,-0.0234 0.0254,0 0.0254,0 0,0.0234 0,0.0234 -0.0254,0 -0.0254,0 0,-0.0234 z"
       id="path6505-64"
       inkscape:connector-curvature="0" />
    <path
       style="fill:#ffffff;fill-opacity:0.88461537"
       d="m 299.91187,131.79756 0,-0.0234 0.0254,0 0.0254,0 0,0.0234 0,0.0234 -0.0254,0 -0.0254,0 0,-0.0234 z"
       id="path6507-3"
       inkscape:connector-curvature="0" />
    <path
       style="fill:#ffffff;fill-opacity:0.88461537"
       d="m 299.96438,131.81214 c 0,-0.005 8.9e-4,-0.008 0.002,-0.005 10e-4,0.003 10e-4,0.007 0,0.01 -0.001,0.003 -0.002,4.9e-4 -0.002,-0.005 z"
       id="path6511-1"
       inkscape:connector-curvature="0" />
    <path
       style="fill:#ffffff;fill-opacity:0.88461537"
       d="m 286.40427,131.7713 c 0.0876,-5.9e-4 0.23081,-5.9e-4 0.31836,0 0.0876,5.9e-4 0.0159,0.001 -0.15918,0.001 -0.1751,0 -0.24673,-4.8e-4 -0.15918,-0.001 z"
       id="path6535-2"
       inkscape:connector-curvature="0" />
    <path
       style="fill:#ffffff;fill-opacity:0.88461537"
       d="m 286.48811,131.77135 c 0.0112,-7.8e-4 0.0305,-7.9e-4 0.043,-1e-5 0.0124,7.8e-4 0.003,0.001 -0.0204,0.001 -0.0236,10e-6 -0.0338,-6.3e-4 -0.0226,-0.001 z"
       id="path6537-9"
       inkscape:connector-curvature="0" />
    <rect
       style="fill:#ffffff;fill-opacity:1"
       id="rect3230-5-1-3"
       width="695.26581"
       height="2.9549901"
       x="21.849718"
       y="-486.67618"
       transform="matrix(0,1,-1,0,0,0)" />
    <rect
       style="fill:#ff0000;fill-opacity:1"
       id="rect3232-6-22"
       width="0.042960256"
       height="0.0088886395"
       x="33.96246"
       y="195.87434" />
    <path
       style="fill:#ffffff;fill-opacity:0.88461537"
       d="m 304.57016,319.40187 c 0.001,-10e-4 0.005,-10e-4 0.007,-3.5e-4 0.003,10e-4 0.002,0.002 -0.002,0.002 -0.004,2e-4 -0.006,-8.5e-4 -0.005,-0.002 z"
       id="path6465-1-92"
       inkscape:connector-curvature="0" />
    <path
       style="fill:#ffffff;fill-opacity:0.88461537"
       d="m 291.06222,320.85896 c 0.88445,-6.2e-4 2.33171,-6.2e-4 3.21616,0 0.88444,6.1e-4 0.1608,10e-4 -1.60809,10e-4 -1.76888,0 -2.49251,-5.1e-4 -1.60807,-10e-4 z"
       id="path6495-3-4"
       inkscape:connector-curvature="0" />
    <path
       style="fill:#ffffff;fill-opacity:0.88461537"
       d="m 299.90402,320.83119 0,-0.0266 0.0254,0 0.0254,0 0,0.0266 0,0.0266 -0.0254,0 -0.0254,0 0,-0.0266 z"
       id="path6505-5-9"
       inkscape:connector-curvature="0" />
    <path
       style="fill:#ffffff;fill-opacity:0.88461537"
       d="m 299.90402,320.83119 0,-0.0266 0.0254,0 0.0254,0 0,0.0266 0,0.0266 -0.0254,0 -0.0254,0 0,-0.0266 z"
       id="path6507-1-06"
       inkscape:connector-curvature="0" />
    <path
       style="fill:#ffffff;fill-opacity:0.88461537"
       d="m 299.95652,320.84777 c 0,-0.006 8.9e-4,-0.009 0.002,-0.006 10e-4,0.003 10e-4,0.008 0,0.0114 -0.001,0.003 -0.002,5.6e-4 -0.002,-0.006 z"
       id="path6511-0-5"
       inkscape:connector-curvature="0" />
    <path
       style="fill:#ffffff;fill-opacity:0.88461537"
       d="m 286.39909,320.80131 c 0.0876,-6.7e-4 0.23077,-6.7e-4 0.3183,0 0.0876,6.7e-4 0.0159,10e-4 -0.15915,10e-4 -0.17506,0 -0.24668,-5.5e-4 -0.15915,-10e-4 z"
       id="path6535-8-5"
       inkscape:connector-curvature="0" />
    <path
       style="fill:#ffffff;fill-opacity:0.88461537"
       d="m 286.48292,320.80137 c 0.0112,-8.9e-4 0.0305,-9e-4 0.043,-2e-5 0.0124,8.9e-4 0.003,10e-4 -0.0204,10e-4 -0.0236,1e-5 -0.0338,-7.1e-4 -0.0226,-10e-4 z"
       id="path6537-0-2"
       inkscape:connector-curvature="0" />
    <path
       style="fill:#ffffff;fill-opacity:0.88461537"
       d="m 304.52755,124.65967 c 10e-4,-0.001 0.005,-0.001 0.007,-3.5e-4 0.003,0.001 0.002,0.002 -0.002,0.002 -0.004,2e-4 -0.006,-8.5e-4 -0.005,-0.002 z"
       id="path6465-1-9-6"
       inkscape:connector-curvature="0" />
    <path
       style="fill:#ffffff;fill-opacity:0.88461537"
       d="m 291.01961,126.11676 c 0.88445,-6.2e-4 2.33171,-6.2e-4 3.21616,0 0.88444,6.1e-4 0.1608,0.001 -1.60809,0.001 -1.76888,0 -2.49251,-5.1e-4 -1.60807,-0.001 z"
       id="path6495-3-3-5"
       inkscape:connector-curvature="0" />
    <path
       style="fill:#ffffff;fill-opacity:0.88461537"
       d="m 299.86141,126.08899 0,-0.0266 0.0254,0 0.0254,0 0,0.0266 0,0.0266 -0.0254,0 -0.0254,0 0,-0.0266 z"
       id="path6505-5-1-50"
       inkscape:connector-curvature="0" />
    <path
       style="fill:#ffffff;fill-opacity:0.88461537"
       d="m 299.86141,126.08899 0,-0.0266 0.0254,0 0.0254,0 0,0.0266 0,0.0266 -0.0254,0 -0.0254,0 0,-0.0266 z"
       id="path6507-1-3-6"
       inkscape:connector-curvature="0" />
    <path
       style="fill:#ffffff;fill-opacity:0.88461537"
       d="m 299.91391,126.10557 c 0,-0.006 8.9e-4,-0.009 0.002,-0.006 10e-4,0.003 10e-4,0.008 0,0.0114 -10e-4,0.003 -0.002,5.6e-4 -0.002,-0.006 z"
       id="path6511-0-2-8"
       inkscape:connector-curvature="0" />
    <path
       style="fill:#ffffff;fill-opacity:0.88461537"
       d="m 286.35648,126.05911 c 0.0876,-6.7e-4 0.23077,-6.7e-4 0.3183,0 0.0876,6.7e-4 0.0159,10e-4 -0.15915,10e-4 -0.17506,0 -0.24668,-5.5e-4 -0.15915,-10e-4 z"
       id="path6535-8-1-6"
       inkscape:connector-curvature="0" />
    <path
       style="fill:#ffffff;fill-opacity:0.88461537"
       d="m 286.44031,126.05917 c 0.0112,-8.9e-4 0.0305,-9e-4 0.043,-2e-5 0.0124,8.9e-4 0.003,10e-4 -0.0204,10e-4 -0.0236,1e-5 -0.0338,-7.1e-4 -0.0226,-10e-4 z"
       id="path6537-0-9-84"
       inkscape:connector-curvature="0" />
    <path
       sodipodi:type="arc"
       style="fill:#ffffff;fill-opacity:1"
       id="path3226-3"
       sodipodi:cx="253.36719"
       sodipodi:cy="367.36719"
       sodipodi:rx="3.4921875"
       sodipodi:ry="3.4609375"
       d="m 256.85937,367.36719 a 3.4921875,3.4609375 0 1 1 -6.98437,0 3.4921875,3.4609375 0 1 1 6.98437,0 z"
       transform="matrix(1.2316902,0,0,1.2676636,-52.39044,-95.041488)" />
    <path
       sodipodi:type="arc"
       style="fill:#ffffff;fill-opacity:1"
       id="path3226-6-6"
       sodipodi:cx="253.36719"
       sodipodi:cy="367.36719"
       sodipodi:rx="3.4921875"
       sodipodi:ry="3.4609375"
       d="m 256.85937,367.36719 a 3.4921875,3.4609375 0 1 1 -6.98437,0 3.4921875,3.4609375 0 1 1 6.98437,0 z"
       transform="matrix(1.2316902,0,0,1.2676636,-52.58187,180.5016)" />
    <rect
       style="fill:#ffffff;fill-opacity:1"
       id="rect3230-4-6"
       width="452.5119"
       height="2.9549901"
       x="34.157345"
       y="716.86737" />
    <rect
       style="fill:#ffffff;fill-opacity:1"
       id="rect3230-3-40-5"
       width="108.10175"
       height="2.9549901"
       x="-718.49854"
       y="-128.40961"
       transform="matrix(0,-1,-1,0,0,0)" />
    <rect
       style="fill:#ffffff;fill-opacity:1"
       id="rect3230-8-0-5"
       width="264.79706"
       height="2.9549901"
       x="128.09937"
       y="-613.35461"
       transform="scale(1,-1)" />
    <rect
       style="fill:#ffffff;fill-opacity:1"
       id="rect3230-3-4-1-1"
       width="106.56269"
       height="2.9549901"
       x="-718.90869"
       y="-392.89011"
       transform="matrix(0,-1,-1,0,0,0)" />
    <path
       sodipodi:type="arc"
       style="fill:#ffffff;fill-opacity:1"
       id="path3226-7-1-9"
       sodipodi:cx="253.36719"
       sodipodi:cy="367.36719"
       sodipodi:rx="3.4921875"
       sodipodi:ry="3.4609375"
       d="m 256.85937,367.36719 a 3.4921875,3.4609375 0 1 1 -6.98437,0 3.4921875,3.4609375 0 1 1 6.98437,0 z"
       transform="matrix(1.2316902,0,0,-1.2676636,-52.6012,1111.97)" />
    <rect
       style="fill:#ffffff;fill-opacity:1"
       id="rect3230-3-2-1-6"
       width="35.976753"
       height="2.9549901"
       x="-719.37744"
       y="-200.8602"
       transform="matrix(0,-1,-1,0,0,0)" />
    <rect
       style="fill:#ffffff;fill-opacity:1"
       id="rect3230-3-2-9-5-8"
       width="35.976753"
       height="2.9549901"
       x="-719.36963"
       y="-319.89529"
       transform="matrix(0,-1,-1,0,0,0)" />
    <rect
       style="fill:#ffffff;fill-opacity:1"
       id="rect3230-8-6-2-6"
       width="121.48456"
       height="2.9549901"
       x="197.90213"
       y="-686.35486"
       transform="scale(1,-1)" />
    <rect
       style="fill:#ffffff;fill-opacity:1"
       id="rect3596-4-8"
       width="49.527344"
       height="1.0117188"
       x="236.1517"
       y="-729.83441"
       transform="scale(1,-1)" />
    <rect
       style="fill:#ffffff;fill-opacity:1"
       id="rect3596-8-1-8"
       width="11.203124"
       height="1.0117188"
       x="718.63007"
       y="235.66031"
       transform="matrix(0,1,1,0,0,0)" />
    <rect
       style="fill:#ffffff;fill-opacity:1"
       id="rect3596-8-0-3-5"
       width="10.062499"
       height="1.0117188"
       x="719.73285"
       y="284.66537"
       transform="matrix(0,1,1,0,0,0)" />
    <path
       sodipodi:type="arc"
       style="fill:#ff0000;fill-opacity:0;stroke:#ffffff;stroke-width:2.57833576;stroke-miterlimit:4;stroke-opacity:1;stroke-dasharray:none"
       id="path4671-9"
       sodipodi:cx="33.262318"
       sodipodi:cy="711.02325"
       sodipodi:rx="5.0829029"
       sodipodi:ry="4.3690495"
       d="m 32.970549,706.66141 a 5.0829029,4.3690495 0 0 1 5.331336,4.93114"
       transform="matrix(1.1294976,0,0,1.310886,-1.40476,-214.90632)"
       sodipodi:start="4.6549555"
       sodipodi:end="6.4138598"
       sodipodi:open="true" />
    <path
       sodipodi:type="arc"
       style="fill:#ff9900;fill-opacity:0;stroke:#ffffff;stroke-width:2.57833576;stroke-miterlimit:4;stroke-opacity:1;stroke-dasharray:none"
       id="path4671-2-2"
       sodipodi:cx="33.262318"
       sodipodi:cy="711.02325"
       sodipodi:rx="5.0829029"
       sodipodi:ry="4.3690495"
       d="m 32.970549,706.66141 a 5.0829029,4.3690495 0 0 1 5.331336,4.93114"
       transform="matrix(0,-1.1294976,1.310886,0,-447.94354,754.60042)"
       sodipodi:start="4.6549555"
       sodipodi:end="6.4138598"
       sodipodi:open="true" />
    <path
       sodipodi:type="arc"
       style="fill:#fcff00;fill-opacity:0;stroke:#ffffff;stroke-width:2.55721402;stroke-miterlimit:4;stroke-opacity:1;stroke-dasharray:none"
       id="path4557-4-3"
       sodipodi:cx="246.45575"
       sodipodi:cy="152.35439"
       sodipodi:rx="29.629"
       sodipodi:ry="24.706959"
       d="m 275.74991,156.05835 a 29.629,24.706959 0 0 1 -58.526,0.32783"
       transform="matrix(-1.5313138,0,0,-1.1140241,636.61665,785.52449)"
       sodipodi:start="0.15048307"
       sodipodi:end="2.9776752"
       sodipodi:open="true" />
    <path
       style="fill:#ffffff;fill-opacity:1;stroke:#ffffff;stroke-width:0.56992662;stroke-miterlimit:4;stroke-opacity:1;stroke-dasharray:none"
       d="m 35.96818,370.82124 0,-1.11309 224.59049,0 224.59049,0 0,1.11309 0,1.11308 -224.59049,0 -224.59049,0 0,-1.11308 z"
       id="path6577-8"
       inkscape:connector-curvature="0" />
    <rect
       style="fill:#ff0000;fill-opacity:1"
       id="rect3232-7-9"
       width="0.04296875"
       height="0.0078125"
       x="-486.43253"
       y="-718.46942"
       transform="scale(-1,-1)" />
    <path
       style="fill:#ffffff;fill-opacity:0.82051284"
       d="m 262.16287,643.63693 c -0.0316,6.6e-4 -0.0843,6.6e-4 -0.11719,10e-6 -0.0329,-6.6e-4 -0.007,-10e-4 0.0574,-10e-4 0.0644,-10e-6 0.0914,5.3e-4 0.0598,10e-4 z"
       id="path6355-5-3"
       inkscape:connector-curvature="0" />
    <path
       style="fill:#ffffff;fill-opacity:0.88461537"
       d="m 215.77134,609.89724 c -0.001,10e-4 -0.005,10e-4 -0.007,3.1e-4 -0.003,-10e-4 -0.002,-0.002 0.002,-0.002 0.004,-1.7e-4 0.006,7.5e-4 0.005,0.002 z"
       id="path6465-13-6"
       inkscape:connector-curvature="0" />
    <path
       style="fill:#ffffff;fill-opacity:0.88461537"
       d="m 229.28195,608.61656 c -0.88462,5.4e-4 -2.33217,5.4e-4 -3.21679,0 -0.88462,-5.4e-4 -0.16084,-9.9e-4 1.6084,-9.9e-4 1.76923,0 2.49301,4.5e-4 1.60839,9.9e-4 z"
       id="path6495-7-8"
       inkscape:connector-curvature="0" />
    <path
       style="fill:#ffffff;fill-opacity:0.88461537"
       d="m 220.4384,608.64097 0,0.0234 -0.0254,0 -0.0254,0 0,-0.0234 0,-0.0234 0.0254,0 0.0254,0 0,0.0234 z"
       id="path6505-6-1"
       inkscape:connector-curvature="0" />
    <path
       style="fill:#ffffff;fill-opacity:0.88461537"
       d="m 220.4384,608.64097 0,0.0234 -0.0254,0 -0.0254,0 0,-0.0234 0,-0.0234 0.0254,0 0.0254,0 0,0.0234 z"
       id="path6507-0-0"
       inkscape:connector-curvature="0" />
    <path
       style="fill:#ffffff;fill-opacity:0.88461537"
       d="m 220.38589,608.62639 c 0,0.005 -8.9e-4,0.008 -0.002,0.005 -0.001,-0.003 -0.001,-0.007 0,-0.01 0.001,-0.003 0.002,-4.9e-4 0.002,0.005 z"
       id="path6511-4-4"
       inkscape:connector-curvature="0" />
    <path
       style="fill:#ffffff;fill-opacity:0.88461537"
       d="m 233.946,608.66723 c -0.0876,5.9e-4 -0.23081,5.9e-4 -0.31836,0 -0.0876,-5.9e-4 -0.0159,-10e-4 0.15918,-10e-4 0.1751,0 0.24673,4.8e-4 0.15918,10e-4 z"
       id="path6535-0-1"
       inkscape:connector-curvature="0" />
    <path
       style="fill:#ffffff;fill-opacity:0.88461537"
       d="m 233.86216,608.66718 c -0.0112,7.8e-4 -0.0305,7.9e-4 -0.043,10e-6 -0.0124,-7.8e-4 -0.003,-10e-4 0.0204,-10e-4 0.0236,-10e-6 0.0338,6.3e-4 0.0226,10e-4 z"
       id="path6537-8-7"
       inkscape:connector-curvature="0" />
    <rect
       style="fill:#ff0000;fill-opacity:1"
       id="rect3232-6-23-7"
       width="0.042960256"
       height="0.0088886395"
       x="-486.38773"
       y="-544.56421"
       transform="scale(-1,-1)" />
    <path
       style="fill:#ffffff;fill-opacity:0.88461537"
       d="m 215.78011,421.03666 c -0.001,0.001 -0.005,0.001 -0.007,3.5e-4 -0.003,-0.001 -0.002,-0.002 0.002,-0.002 0.004,-2e-4 0.006,8.5e-4 0.005,0.002 z"
       id="path6465-1-5-9"
       inkscape:connector-curvature="0" />
    <path
       style="fill:#ffffff;fill-opacity:0.88461537"
       d="m 229.28805,419.57957 c -0.88445,6.2e-4 -2.33171,6.2e-4 -3.21616,0 -0.88444,-6.1e-4 -0.1608,-10e-4 1.60809,-10e-4 1.76888,0 2.49251,5.1e-4 1.60807,10e-4 z"
       id="path6495-3-9-1"
       inkscape:connector-curvature="0" />
    <path
       style="fill:#ffffff;fill-opacity:0.88461537"
       d="m 220.44625,419.60734 0,0.0266 -0.0254,0 -0.0254,0 0,-0.0266 0,-0.0266 0.0254,0 0.0254,0 0,0.0266 z"
       id="path6505-5-2-2"
       inkscape:connector-curvature="0" />
    <path
       style="fill:#ffffff;fill-opacity:0.88461537"
       d="m 220.44625,419.60734 0,0.0266 -0.0254,0 -0.0254,0 0,-0.0266 0,-0.0266 0.0254,0 0.0254,0 0,0.0266 z"
       id="path6507-1-0-9"
       inkscape:connector-curvature="0" />
    <path
       style="fill:#ffffff;fill-opacity:0.88461537"
       d="m 220.39375,419.59076 c 0,0.006 -8.9e-4,0.009 -0.002,0.006 -0.001,-0.003 -0.001,-0.008 0,-0.0114 0.001,-0.003 0.002,-5.6e-4 0.002,0.006 z"
       id="path6511-0-3-5"
       inkscape:connector-curvature="0" />
    <path
       style="fill:#ffffff;fill-opacity:0.88461537"
       d="m 233.95118,419.63722 c -0.0876,6.7e-4 -0.23077,6.7e-4 -0.3183,0 -0.0876,-6.7e-4 -0.0159,-0.001 0.15915,-0.001 0.17506,0 0.24668,5.5e-4 0.15915,0.001 z"
       id="path6535-8-8-3"
       inkscape:connector-curvature="0" />
    <path
       style="fill:#ffffff;fill-opacity:0.88461537"
       d="m 233.86735,419.63716 c -0.0112,8.9e-4 -0.0305,9e-4 -0.043,2e-5 -0.0124,-8.9e-4 -0.003,-10e-4 0.0204,-10e-4 0.0236,-1e-5 0.0338,7.1e-4 0.0226,10e-4 z"
       id="path6537-0-7-9"
       inkscape:connector-curvature="0" />
    <path
       style="fill:#ffffff;fill-opacity:0.88461537"
       d="m 215.82272,615.77887 c -0.001,10e-4 -0.005,10e-4 -0.007,3.5e-4 -0.003,-10e-4 -0.002,-0.002 0.002,-0.002 0.004,-2e-4 0.006,8.5e-4 0.005,0.002 z"
       id="path6465-1-9-3-1"
       inkscape:connector-curvature="0" />
    <path
       style="fill:#ffffff;fill-opacity:0.88461537"
       d="m 229.33066,614.32178 c -0.88445,6.2e-4 -2.33171,6.2e-4 -3.21616,0 -0.88444,-6.1e-4 -0.1608,-10e-4 1.60809,-10e-4 1.76888,0 2.49251,5.1e-4 1.60807,10e-4 z"
       id="path6495-3-3-3-8"
       inkscape:connector-curvature="0" />
    <path
       style="fill:#ffffff;fill-opacity:0.88461537"
       d="m 220.48886,614.34955 0,0.0266 -0.0254,0 -0.0254,0 0,-0.0266 0,-0.0266 0.0254,0 0.0254,0 0,0.0266 z"
       id="path6505-5-1-5-5"
       inkscape:connector-curvature="0" />
    <path
       style="fill:#ffffff;fill-opacity:0.88461537"
       d="m 220.48886,614.34955 0,0.0266 -0.0254,0 -0.0254,0 0,-0.0266 0,-0.0266 0.0254,0 0.0254,0 0,0.0266 z"
       id="path6507-1-3-9-7"
       inkscape:connector-curvature="0" />
    <path
       style="fill:#ffffff;fill-opacity:0.88461537"
       d="m 220.43636,614.33297 c 0,0.006 -8.9e-4,0.009 -0.002,0.006 -0.001,-0.003 -0.001,-0.008 0,-0.0114 0.001,-0.003 0.002,-5.6e-4 0.002,0.006 z"
       id="path6511-0-2-4-5"
       inkscape:connector-curvature="0" />
    <path
       style="fill:#ffffff;fill-opacity:0.88461537"
       d="m 233.99379,614.37943 c -0.0876,6.7e-4 -0.23077,6.7e-4 -0.3183,0 -0.0876,-6.7e-4 -0.0159,-10e-4 0.15915,-10e-4 0.17506,0 0.24668,5.5e-4 0.15915,10e-4 z"
       id="path6535-8-1-0-7"
       inkscape:connector-curvature="0" />
    <path
       style="fill:#ffffff;fill-opacity:0.88461537"
       d="m 233.90996,614.37937 c -0.0112,8.9e-4 -0.0305,9e-4 -0.043,2e-5 -0.0124,-8.9e-4 -0.003,-10e-4 0.0204,-10e-4 0.0236,-10e-6 0.0338,7.1e-4 0.0226,10e-4 z"
       id="path6537-0-9-8-0"
       inkscape:connector-curvature="0" />
    <rect
       style="fill:#ff0000;fill-opacity:0"
       id="rect3994-4-8"
       width="12.056871"
       height="5.3938637"
       x="281.76486"
       y="46.405991" />
    <rect
       style="fill:#ff0000;fill-opacity:0"
       id="rect3996-6-6"
       width="13.389473"
       height="7.7417808"
       x="283.28787"
       y="53.513229" />
    <rect
       style="fill:#ff0000;fill-opacity:0"
       id="rect3994-9-8-5"
       width="12.056871"
       height="5.3938637"
       x="94.655762"
       y="142.93327" />
    <rect
       style="fill:#ff0000;fill-opacity:0"
       id="rect3996-5-14-2"
       width="13.389473"
       height="7.7417808"
       x="96.178772"
       y="150.04048" />
    <rect
       style="fill:#ff0000;fill-opacity:0"
       id="rect3994-9-01-2"
       width="12.056871"
       height="5.3938637"
       x="468.2261"
       y="142.93718" />
    <rect
       style="fill:#ff0000;fill-opacity:0"
       id="rect3996-5-7-5"
       width="13.389473"
       height="7.7417808"
       x="469.74905"
       y="150.04439" />
    <rect
       style="fill:#ff0000;fill-opacity:0"
       id="rect3994-9-5-8"
       width="12.056871"
       height="5.3938637"
       x="223.63229"
       y="142.92937" />
    <rect
       style="fill:#ff0000;fill-opacity:0"
       id="rect3996-5-93-5"
       width="13.389473"
       height="7.7417808"
       x="225.1553"
       y="150.03658" />
    <rect
       style="fill:#ff0000;fill-opacity:0"
       id="rect3994-9-5-9-6"
       width="12.056871"
       height="5.3938637"
       x="338.61887"
       y="142.87996" />
    <rect
       style="fill:#ff0000;fill-opacity:0"
       id="rect3996-5-93-7-0"
       width="13.389473"
       height="7.7417808"
       x="340.14182"
       y="149.98717" />
  </g>
</svg>
