<?xml version="1.0" standalone="no"?>
<!DOCTYPE svg PUBLIC "-//W3C//DTD SVG 20010904//EN"
 "http://www.w3.org/TR/2001/REC-SVG-20010904/DTD/svg10.dtd">
<svg version="1.0" xmlns="http://www.w3.org/2000/svg"
 width="512.000000pt" height="512.000000pt" viewBox="0 0 512.000000 512.000000"
 preserveAspectRatio="xMidYMid meet">
<metadata>
Created by potrace 1.11, written by Peter Selinger 2001-2013
</metadata>
<g transform="translate(0.000000,512.000000) scale(0.100000,-0.100000)"
fill="#000000" stroke="none">
<path d="M0 2560 l0 -2560 1208 2 c664 1 1187 3 1162 5 -631 48 -1274 361
-1688 823 -362 405 -571 854 -649 1395 -24 169 -24 496 1 670 82 587 338 1093
757 1500 244 237 467 383 819 538 187 81 514 157 771 176 60 5 -427 9 -1138
10 l-1243 1 0 -2560z"/>
<path d="M2740 5110 c898 -69 1672 -579 2085 -1372 132 -254 214 -507 261
-808 27 -164 27 -586 0 -750 -88 -557 -329 -1033 -721 -1426 -344 -345 -720
-559 -1193 -679 -96 -24 -312 -60 -412 -68 -25 -2 496 -4 1158 -5 l1202 -2 0
2560 0 2560 -1237 -1 c-681 -1 -1195 -5 -1143 -9z"/>
<path d="M2320 5000 c-719 -69 -1363 -457 -1791 -1080 -209 -304 -352 -694
-399 -1090 -13 -109 -13 -431 0 -540 12 -101 46 -283 67 -360 213 -786 782
-1405 1543 -1681 694 -253 1511 -162 2131 237 215 139 486 385 624 569 379
503 549 1066 506 1680 -81 1145 -950 2083 -2086 2251 -123 18 -466 26 -595 14z
m328 -209 c67 -35 72 -53 72 -278 0 -173 -2 -203 -18 -232 -30 -57 -70 -71
-194 -71 l-108 0 0 298 c0 164 3 302 8 307 14 14 201 -4 240 -24z m-374 11 c5
-9 86 -554 86 -583 0 -14 -11 -19 -55 -24 -31 -4 -58 -6 -60 -3 -4 4 -52 318
-77 506 -6 45 -8 85 -4 89 5 5 62 19 93 22 6 0 14 -3 17 -7z m741 -31 c97 -18
94 -14 79 -80 -5 -21 -8 -23 -52 -16 -26 3 -54 8 -62 11 -13 3 -18 -11 -28
-66 -16 -94 -17 -89 28 -96 42 -7 48 -19 34 -72 -6 -21 -11 -22 -49 -16 -49 7
-47 10 -64 -90 -16 -85 -17 -83 47 -92 l57 -9 -3 -40 c-2 -22 -5 -42 -8 -44
-5 -5 -234 35 -241 42 -2 3 5 51 16 108 11 57 37 190 57 296 l36 192 32 -6
c17 -4 72 -14 121 -22z m-970 -72 c19 -19 37 -45 40 -59 5 -23 0 -28 -50 -53
l-55 -27 -16 40 c-12 31 -22 40 -39 40 -31 0 -40 -29 -22 -73 12 -28 29 -41
93 -72 44 -21 93 -49 111 -62 39 -30 83 -115 83 -160 0 -71 -60 -137 -135
-148 -75 -12 -162 45 -180 117 -5 21 0 28 46 53 29 15 54 24 56 19 11 -32 41
-79 56 -88 14 -9 21 -7 33 8 32 44 -22 107 -141 164 -114 56 -140 90 -140 188
0 63 3 76 25 99 38 41 77 56 143 52 51 -3 62 -8 92 -38z m1440 -81 c25 -12 45
-27 45 -32 0 -6 -13 -60 -30 -120 -16 -61 -28 -111 -26 -113 2 -2 38 39 81 92
43 52 79 95 81 95 9 0 94 -45 94 -50 0 -3 -61 -73 -136 -155 -110 -122 -144
-167 -181 -240 -25 -49 -47 -91 -48 -93 -4 -4 -105 47 -105 53 0 3 20 45 44
93 37 75 48 113 80 277 40 204 43 215 50 215 3 0 26 -10 51 -22z m-1721 -259
c75 -141 136 -259 136 -262 0 -8 -83 -57 -96 -57 -10 0 -29 31 -86 142 -21 43
-43 80 -47 82 -4 3 -22 -4 -40 -15 l-32 -20 60 -114 c34 -62 61 -116 61 -119
0 -7 -101 -59 -105 -54 -2 2 -56 102 -121 223 -64 121 -125 236 -135 255 -11
19 -19 40 -19 47 0 7 22 24 50 38 l49 25 56 -105 c31 -58 60 -105 65 -105 18
0 60 23 60 33 0 12 -78 168 -91 182 -19 20 -7 41 39 66 26 14 50 23 53 20 4
-3 68 -121 143 -262z m-500 17 l26 -34 -31 -26 c-19 -16 -28 -31 -23 -38 4 -7
75 -98 158 -202 l150 -189 -44 -38 c-25 -22 -47 -39 -50 -39 -3 1 -76 91 -163
201 l-158 199 -34 -26 -34 -26 -25 29 c-14 15 -26 33 -26 40 0 11 208 183 221
183 4 0 18 -15 33 -34z m2639 13 c49 -13 113 -71 127 -115 24 -71 -2 -131
-126 -290 -114 -146 -176 -185 -257 -163 -49 13 -113 70 -127 115 -24 72 10
145 145 314 68 84 113 125 150 138 39 14 43 14 88 1z m341 -301 c29 -33 34
-44 24 -53 -7 -7 -90 -78 -185 -159 -95 -81 -175 -156 -178 -166 -10 -31 12
-60 44 -60 22 0 68 34 209 155 100 85 185 155 190 155 12 0 74 -79 70 -89 -2
-4 -26 -28 -54 -52 -28 -24 -79 -69 -114 -99 -159 -138 -208 -172 -268 -185
-69 -15 -172 68 -188 150 -8 44 13 99 56 147 48 53 332 297 347 297 6 1 28
-18 47 -41z m-3210 -2 c42 -30 54 -42 75 -76 11 -19 21 -51 21 -71 0 -33 4
-39 38 -54 44 -20 96 -44 175 -80 l57 -26 -37 -44 c-20 -25 -42 -45 -48 -45
-5 0 -64 29 -129 65 -66 35 -122 62 -125 59 -6 -5 24 -35 143 -142 l59 -53
-44 -44 -44 -44 -96 87 c-118 108 -228 205 -296 263 -28 24 -52 47 -52 51 -1
10 95 116 127 142 57 45 122 49 176 12z m1704 -41 c196 -15 443 -104 637 -230
357 -231 610 -625 665 -1035 17 -119 17 -340 1 -445 -91 -595 -522 -1073
-1109 -1229 -229 -61 -530 -58 -767 7 -469 129 -856 493 -1014 954 -51 149
-71 255 -77 418 -10 231 19 420 95 617 207 532 709 909 1266 948 108 7 135 7
303 -5z m1820 -391 c79 -135 78 -128 20 -159 -26 -15 -28 -14 -43 14 -8 16
-19 32 -24 35 -5 3 -60 -24 -122 -61 -274 -160 -318 -185 -328 -179 -5 3 -21
26 -34 51 l-26 45 72 41 c95 55 361 212 366 216 3 2 -3 19 -12 38 -9 20 -17
37 -17 39 0 5 63 46 70 46 3 0 38 -57 78 -126z m-3809 97 c77 -29 285 -156
319 -195 36 -41 55 -100 44 -136 -28 -98 -105 -158 -185 -146 -76 12 -311 150
-372 218 -36 39 -37 42 -33 104 3 52 9 70 34 101 33 41 86 73 121 73 13 0 45
-8 72 -19z m3952 -376 c10 -27 15 -52 11 -56 -4 -3 -49 -21 -99 -39 -122 -43
-127 -47 -112 -88 6 -17 15 -32 20 -32 5 0 58 18 117 40 59 21 110 36 113 32
4 -4 13 -28 22 -54 12 -35 13 -49 4 -56 -7 -4 -102 -41 -212 -81 -110 -40
-230 -84 -268 -98 -37 -15 -70 -23 -74 -19 -14 14 -43 100 -35 108 4 4 59 25
122 48 63 22 116 42 118 44 2 2 -4 20 -12 40 l-15 36 -108 -39 c-59 -22 -116
-42 -125 -46 -13 -5 -21 2 -33 31 -8 21 -18 47 -21 58 -5 23 -15 19 221 105
77 28 181 66 230 85 50 19 96 34 104 33 7 -1 22 -24 32 -52z m-4075 -64 c318
-109 346 -119 351 -125 3 -3 3 -15 -1 -28 -13 -52 -16 -53 -175 -58 -82 -3
-152 -8 -156 -11 -7 -7 20 -18 173 -70 50 -17 92 -36 92 -42 0 -24 -24 -87
-33 -87 -6 0 -42 11 -81 24 -390 135 -480 167 -484 171 -2 2 2 21 11 42 l15
38 73 6 c41 4 112 7 159 8 53 1 80 5 75 10 -6 6 -66 30 -135 54 -106 37 -125
47 -123 64 3 30 21 73 31 73 4 0 98 -31 208 -69z m-11 -667 c17 -36 35 -70 42
-76 7 -5 50 -15 95 -22 l83 -12 -66 -62 -66 -63 16 -79 c8 -44 12 -82 9 -85
-3 -4 -39 10 -79 31 l-74 37 -72 -38 c-40 -21 -75 -36 -78 -34 -2 3 1 42 8 87
l13 81 -58 58 c-32 31 -58 60 -58 64 0 3 28 10 63 13 101 12 100 11 140 92 20
41 40 74 44 74 5 0 22 -30 38 -66z m3966 -5 c20 -42 43 -75 54 -79 12 -4 51
-11 88 -15 37 -4 67 -10 67 -13 0 -4 -27 -34 -60 -67 l-60 -61 14 -79 c7 -44
12 -82 9 -85 -2 -2 -38 13 -79 34 l-75 38 -74 -38 c-41 -21 -76 -36 -79 -34
-2 3 2 41 10 85 l14 80 -60 60 c-33 33 -60 63 -60 66 0 4 28 10 63 13 105 12
105 12 144 92 19 41 38 74 42 74 4 0 23 -32 42 -71z m-3549 -758 c65 -74 65
-161 -1 -223 -22 -21 -44 -38 -49 -38 -16 0 -77 103 -63 108 7 2 24 15 39 27
22 20 25 27 16 42 -16 25 -64 20 -90 -11 -12 -14 -34 -61 -49 -105 -32 -96
-71 -154 -124 -181 -110 -55 -221 7 -229 129 -4 65 15 102 73 147 l36 27 24
-29 c40 -48 52 -77 37 -82 -31 -10 -73 -56 -70 -76 5 -37 44 -32 87 11 30 29
44 56 61 113 28 96 52 134 103 165 36 22 51 25 101 22 56 -3 62 -6 98 -46z
m3118 24 c17 -9 30 -18 30 -21 0 -2 -12 -27 -26 -55 -14 -28 -24 -52 -22 -54
9 -8 129 -65 137 -65 4 0 14 14 21 30 17 41 23 43 65 26 39 -17 40 -20 20 -56
-8 -14 -14 -30 -15 -36 0 -6 35 -28 77 -48 l77 -37 18 23 c10 13 18 28 18 33
0 6 7 20 15 32 15 22 17 22 50 6 28 -13 34 -21 29 -37 -6 -17 -93 -197 -99
-204 -2 -2 -49 19 -106 46 -302 145 -439 212 -439 216 0 15 103 216 111 216 5
0 23 -7 39 -15z m30 -379 c200 -155 230 -189 230 -265 0 -49 -33 -107 -83
-145 -45 -34 -115 -35 -172 -3 -49 28 -375 277 -375 286 0 11 61 91 68 91 4 0
92 -65 196 -145 116 -89 198 -145 212 -145 28 0 54 34 47 61 -3 10 -59 60
-125 111 -67 51 -154 119 -195 151 l-74 58 37 44 c20 25 39 45 43 45 3 0 89
-65 191 -144z m-2982 67 c96 -72 104 -190 19 -270 -43 -41 -225 -176 -262
-196 -82 -42 -154 -30 -210 36 -65 75 -66 151 -3 223 32 36 230 189 278 214
66 35 125 33 178 -7z m275 -301 c99 -71 101 -163 6 -282 l-27 -33 -46 38 -46
37 23 30 c63 85 71 110 36 129 -35 18 -59 -1 -177 -143 -114 -136 -131 -170
-97 -198 21 -17 48 -5 94 45 23 25 44 45 47 45 14 0 84 -63 84 -75 0 -22 -105
-110 -147 -123 -77 -23 -166 28 -198 113 -16 40 -16 47 -1 92 27 80 217 306
288 342 55 28 107 23 161 -17z m2303 9 c42 -19 114 -86 114 -105 0 -6 -18 -26
-40 -44 l-40 -33 -43 46 c-46 48 -66 54 -91 29 -35 -35 -24 -57 116 -226 89
-107 112 -125 147 -113 27 8 33 31 16 68 -30 68 -45 75 -86 45 -14 -10 -21 -7
-43 18 -14 16 -26 32 -26 36 0 8 131 118 142 118 4 0 50 -53 103 -117 l95
-118 -31 -27 c-24 -21 -36 -25 -50 -18 -15 8 -19 5 -24 -23 -15 -69 -95 -117
-164 -97 -52 15 -95 53 -196 177 -109 135 -125 163 -125 231 0 66 30 109 99
145 64 32 73 32 127 8z m-1981 -219 c54 -38 78 -84 71 -144 -4 -42 -49 -148
-62 -148 -2 0 -27 11 -54 25 l-50 25 25 50 c36 72 30 120 -15 120 -27 0 -53
-37 -129 -182 -55 -105 -72 -146 -69 -170 6 -67 76 -41 113 43 10 21 22 39 27
39 14 0 86 -39 93 -50 6 -10 -24 -72 -52 -107 -30 -35 -94 -73 -125 -73 -39 0
-97 26 -130 57 -53 51 -59 122 -19 215 32 70 140 261 163 285 56 60 140 66
213 15z m1774 -234 l191 -237 -52 -27 -52 -27 -42 48 c-41 48 -42 48 -73 36
-35 -15 -37 -22 -16 -82 9 -24 13 -49 11 -56 -5 -12 -77 -53 -94 -53 -5 0 -24
53 -41 118 -17 64 -42 158 -56 207 -13 50 -35 130 -48 178 l-24 88 21 13 c43
28 61 36 72 33 7 -1 98 -109 203 -239z m-1498 117 c62 -20 114 -37 116 -38 1
-2 -2 -20 -8 -40 -11 -42 -16 -43 -84 -22 -27 8 -50 13 -50 12 -12 -19 -45
-139 -40 -146 3 -5 19 -12 35 -16 39 -9 44 -18 30 -61 -11 -32 -15 -35 -39
-28 -60 16 -62 14 -87 -70 -12 -44 -21 -83 -19 -86 2 -4 29 -15 60 -25 42 -15
54 -23 49 -35 -4 -8 -9 -25 -11 -37 -3 -13 -13 -23 -22 -23 -15 0 -141 38
-202 61 l-26 10 32 102 c18 56 58 186 90 290 32 103 59 187 61 187 1 0 53 -16
115 -35z m1120 -15 c7 -22 10 -42 8 -44 -2 -2 -29 -12 -60 -22 l-56 -19 21
-73 21 -73 35 6 c19 4 39 7 44 8 4 1 14 -15 22 -36 13 -37 12 -38 -12 -47 -14
-6 -30 -10 -35 -10 -5 0 -12 -7 -15 -15 -8 -20 36 -165 51 -165 6 0 34 7 61
15 27 8 50 15 51 15 4 0 24 -82 21 -85 -7 -5 -212 -65 -224 -65 -8 0 -22 30
-34 72 -12 40 -25 84 -30 98 -7 21 -103 343 -116 392 -4 13 8 20 53 33 32 9
83 24 113 35 30 10 58 19 62 19 4 1 13 -17 19 -39z m-885 -51 c138 -19 194
-66 194 -164 0 -64 -29 -128 -69 -151 -17 -10 -31 -21 -31 -24 1 -3 13 -67 29
-144 22 -110 24 -139 14 -143 -18 -7 -101 6 -108 17 -3 5 -13 70 -22 144 -9
75 -20 136 -24 136 -4 0 -12 -39 -18 -87 -6 -49 -15 -110 -19 -138 l-7 -49
-50 3 c-27 1 -54 6 -59 11 -5 5 -4 49 3 107 6 54 20 175 31 268 24 205 28 225
45 225 7 0 49 -5 91 -11z m520 -90 c7 -46 22 -158 34 -249 12 -91 25 -168 29
-171 3 -4 29 -4 58 0 57 8 63 3 63 -49 0 -32 8 -29 -144 -51 -43 -6 -82 -7
-86 -2 -4 4 -17 82 -29 173 -12 91 -28 208 -36 260 -24 164 -24 160 -1 165 31
7 80 12 91 10 6 -1 15 -40 21 -86z"/>
<path d="M2530 4728 c-13 -373 -12 -428 5 -434 9 -4 27 -2 41 4 l24 12 0 199
c0 110 -3 202 -7 204 -11 6 -63 18 -63 15z"/>
<path d="M3845 4272 c-34 -29 -196 -243 -211 -277 -11 -27 -11 -35 2 -53 17
-25 41 -28 65 -9 28 21 201 249 215 283 11 26 11 34 -2 52 -18 26 -42 28 -69
4z"/>
<path d="M889 3984 c-12 -15 -7 -23 45 -70 46 -42 62 -51 73 -43 23 20 15 59
-21 95 -37 37 -75 44 -97 18z"/>
<path d="M2443 3959 c-185 -18 -355 -65 -507 -140 -143 -72 -228 -132 -336
-239 -187 -187 -323 -433 -391 -710 -121 -490 5 -963 351 -1311 126 -126 230
-201 382 -274 187 -89 351 -131 552 -142 132 -7 341 16 431 47 405 139 700
381 877 720 118 225 165 437 155 695 -7 158 -23 244 -73 392 -190 553 -621
912 -1159 963 -122 11 -161 11 -282 -1z m173 -67 c72 -38 194 -180 194 -227 0
-13 -15 -45 -33 -73 -59 -87 -226 -291 -248 -303 -29 -15 -471 -2 -493 15 -8
6 -57 69 -110 140 -130 175 -130 186 13 294 89 67 190 113 316 142 186 43 293
47 361 12z m441 -334 c134 -70 198 -113 237 -162 31 -38 108 -182 134 -252 6
-16 24 -65 41 -109 49 -128 49 -131 -80 -286 -128 -155 -143 -169 -176 -169
-41 0 -439 180 -459 208 -14 19 -121 282 -153 375 -20 57 -20 60 -3 105 32 83
214 315 266 338 44 20 81 10 193 -48z m439 -30 c54 -50 151 -168 199 -244 116
-182 205 -444 205 -606 0 -76 -9 -98 -41 -98 -17 0 -263 252 -286 293 -7 12
-12 30 -13 39 0 32 -62 212 -101 296 -22 45 -58 112 -80 148 -47 73 -47 89 -4
167 34 61 59 62 121 5z m-1663 -33 c106 -132 167 -227 167 -259 0 -44 -104
-457 -127 -503 -13 -28 -40 -52 -98 -90 -44 -28 -126 -81 -181 -117 -56 -36
-109 -69 -118 -72 -40 -16 -65 6 -147 128 l-82 123 6 80 c20 275 188 592 382
722 108 72 131 71 198 -12z m1022 -824 c151 -61 329 -146 356 -168 34 -29 64
-106 90 -228 10 -49 23 -106 28 -126 15 -65 -7 -103 -131 -224 -146 -143 -210
-191 -273 -205 -63 -14 -153 -4 -225 24 -30 13 -76 30 -102 40 -96 35 -115 63
-160 234 -46 179 -77 368 -63 395 12 25 204 189 289 247 71 48 97 50 191 11z
m-850 -59 c33 -19 110 -69 172 -109 92 -62 115 -81 130 -116 11 -23 41 -147
68 -275 37 -182 45 -238 37 -256 -14 -31 -126 -110 -236 -165 -140 -70 -144
-70 -351 65 -93 60 -186 121 -206 134 -58 38 -81 82 -101 189 -10 53 -24 132
-32 177 -8 44 -12 91 -9 102 6 24 68 72 277 211 157 104 151 103 251 43z
m1898 -190 c-2 -143 -38 -275 -119 -439 -37 -73 -70 -133 -75 -133 -4 0 -11
16 -15 35 -5 29 5 63 54 188 70 176 91 251 103 360 8 82 24 116 43 97 6 -6 10
-50 9 -108z m-437 -426 c27 -8 76 -20 109 -27 72 -17 85 -36 85 -125 0 -92
-30 -143 -164 -271 -127 -121 -280 -221 -394 -256 -63 -19 -67 -19 -138 -3
-97 23 -101 28 -81 124 9 42 21 103 27 134 l11 57 142 120 c78 66 159 136 180
155 54 51 98 82 132 94 40 14 36 14 91 -2z m-1817 -181 c72 -47 166 -104 209
-127 160 -87 243 -158 355 -305 40 -53 46 -66 37 -83 -43 -81 -294 9 -535 191
-49 38 -101 79 -115 91 -57 53 -125 142 -161 215 -45 90 -41 103 31 103 42 0
61 -9 179 -85z m1243 -535 c15 -7 25 -16 23 -20 -8 -13 -119 -49 -185 -59
-128 -21 -370 -5 -402 27 -6 6 69 28 237 66 44 10 300 -1 327 -14z"/>
<path d="M630 3635 c-24 -29 -3 -62 73 -108 221 -137 269 -156 297 -122 21 25
3 61 -47 93 -143 89 -261 152 -284 152 -15 0 -32 -7 -39 -15z"/>
<path d="M960 1407 c-74 -56 -141 -114 -149 -129 -14 -24 -14 -28 3 -47 11
-12 27 -21 37 -21 17 0 235 156 292 208 29 27 35 60 15 80 -28 28 -64 11 -198
-91z"/>
<path d="M3420 872 c0 -6 10 -37 21 -69 12 -32 26 -68 30 -81 7 -19 12 -21 29
-12 11 6 20 15 20 20 0 4 -22 41 -50 81 -27 40 -50 67 -50 61z"/>
<path d="M2306 778 c-3 -18 -8 -54 -11 -80 l-6 -48 31 0 c26 0 33 6 46 35 26
62 14 106 -33 119 -19 6 -23 2 -27 -26z"/>
</g>
</svg>
